<?xml version="1.0" encoding="UTF-8"?>
<svg version="1.1" xmlns="http://www.w3.org/2000/svg" width="607" height="700">
<path d="M0 0 C200.31 0 400.62 0 607 0 C607 231 607 462 607 700 C406.69 700 206.38 700 0 700 C0 469 0 238 0 0 Z " fill="#204A86" transform="translate(0,0)"/>
<path d="M0 0 C1.89280292 0.02240961 3.78567592 0.0394779 5.67857361 0.05145264 C10.63707035 0.09705725 15.59128127 0.2147215 20.5480957 0.34790039 C25.61545836 0.47113748 30.6835207 0.52556393 35.75195312 0.5859375 C45.67895639 0.71425213 55.60279238 0.91877649 65.52734375 1.171875 C64.17145482 5.53954198 62.47611155 9.52254575 60.4296875 13.61010742 C60.12359055 14.22419968 59.81749359 14.83829193 59.50212097 15.47099304 C58.49358729 17.49174908 57.47933706 19.50957394 56.46484375 21.52734375 C55.75149748 22.95284114 55.03844956 24.37848787 54.32568359 25.80427551 C52.82848265 28.7971147 51.32861206 31.78859508 49.82666016 34.77905273 C47.93105828 38.55347413 46.04059798 42.33043973 44.15193176 46.10833549 C37.49554807 59.42056669 30.83939941 72.72775864 23.85229492 85.8704071 C19.98750858 93.14866839 16.31375081 100.51842639 12.65353394 107.90118408 C7.3747529 118.544573 2.09070149 129.17763877 -3.5279541 139.64672852 C-7.94037394 147.93483392 -12.09175158 156.35570691 -16.28125 164.7578125 C-17.07766516 166.35315547 -17.8741732 167.94845207 -18.67077637 169.54370117 C-20.60580759 173.41922541 -22.53958043 177.29537509 -24.47265625 181.171875 C-23.71174746 181.17518515 -22.95083866 181.17849529 -22.16687202 181.18190575 C-3.67313779 181.26303976 14.82051229 181.35510041 33.31413078 181.45940208 C42.25741735 181.50957613 51.20069454 181.55601839 60.14404297 181.59375 C67.93684213 181.62663688 75.72956944 181.66644959 83.5222894 181.71466506 C87.6504856 181.73996306 91.77863395 181.76173445 95.90688705 181.77521896 C99.78924758 181.78800955 103.67144423 181.81003101 107.55371475 181.83925819 C108.98158247 181.84835759 110.4094766 181.85402968 111.83737183 181.85608864 C113.78101233 181.85939441 115.72461681 181.87601733 117.66818237 181.8934021 C118.75774168 181.89893286 119.84730099 181.90446362 120.96987724 181.91016197 C123.52734375 182.171875 123.52734375 182.171875 125.52734375 184.171875 C126.05829705 187.95826922 125.78728993 189.7411741 123.796875 193.0390625 C122.98605469 194.03164062 122.17523438 195.02421875 121.33984375 196.046875 C120.89568115 196.59931885 120.45151855 197.1517627 119.99389648 197.72094727 C118.51860312 199.5493977 117.02335077 201.36034821 115.52734375 203.171875 C114.46868819 204.47415285 113.41142213 205.77756137 112.35546875 207.08203125 C110.15835889 209.79402673 107.95408422 212.49998395 105.74609375 215.203125 C102.81443409 218.80328662 99.94304836 222.4469189 97.08984375 226.109375 C92.33514385 232.20561717 87.43703862 238.17664149 82.51025391 244.13427734 C78.84361607 248.56879745 75.21639259 253.02996845 71.63671875 257.53515625 C68.85208691 261.01594605 66.03159403 264.46706283 63.21484375 267.921875 C59.12157178 272.94538267 55.07352383 277.99857254 51.08984375 283.109375 C46.40662777 289.11477905 41.57652918 294.99037571 36.71899414 300.85522461 C33.09045388 305.24589229 29.52571005 309.67694144 26.02734375 314.171875 C21.36755635 320.15907958 16.5580186 326.01280969 11.71875 331.85546875 C8.09033448 336.24608972 4.52563951 340.67703207 1.02734375 345.171875 C-3.63018778 351.15618109 -8.43662778 357.00774526 -13.2746582 362.84667969 C-16.97254932 367.32005778 -20.59769237 371.84009342 -24.16015625 376.421875 C-28.10141733 381.48921067 -32.18129054 386.41018734 -36.35498047 391.28710938 C-39.59675911 395.09232636 -42.71619797 398.97631125 -45.78515625 402.921875 C-51.67158638 410.48846596 -57.77543165 417.8686786 -63.88916016 425.25195312 C-65.28354731 426.94258843 -66.66869527 428.63989884 -68.046875 430.34375 C-72.41699539 435.7434799 -76.91994607 440.96646148 -81.625 446.078125 C-83.61210964 448.23520763 -83.61210964 448.23520763 -85.47265625 451.171875 C-88.52340709 451.438362 -91.36891804 451.51944646 -94.41796875 451.46484375 C-95.30298065 451.46059891 -96.18799255 451.45635406 -97.099823 451.45198059 C-99.9327407 451.43515759 -102.76495277 451.39749925 -105.59765625 451.359375 C-107.51561474 451.34433282 -109.43358436 451.33064361 -111.3515625 451.31835938 C-116.05886656 451.28524227 -120.76564169 451.23343555 -125.47265625 451.171875 C-114.93697087 418.27431152 -104.27216742 385.42162973 -93.31005859 352.66357422 C-90.0573906 342.94310536 -86.80870516 333.2213068 -83.56365585 323.49829197 C-82.12211498 319.17935743 -80.67822506 314.86121255 -79.23388672 310.54321289 C-76.96647052 303.75726127 -74.71209648 296.9671109 -72.47265625 290.171875 C-72.11657288 289.09143921 -71.7604895 288.01100342 -71.39361572 286.89782715 C-70.38769653 283.83270816 -69.39114259 280.76473328 -68.3984375 277.6953125 C-68.0998735 276.78576813 -67.80130951 275.87622375 -67.49369812 274.93911743 C-67.22547745 274.10246552 -66.95725677 273.2658136 -66.6809082 272.40380859 C-66.44612259 271.67890228 -66.21133698 270.95399597 -65.96943665 270.2071228 C-65.31457179 267.87338915 -65.31457179 267.87338915 -65.47265625 264.171875 C-66.18718145 264.16856485 -66.90170666 264.16525471 -67.63788414 264.16184425 C-85.00502164 264.08070694 -102.37206655 263.98864522 -119.73908043 263.88434792 C-128.13755844 263.83417586 -136.53602645 263.78773358 -144.93457031 263.75 C-152.2527333 263.71711105 -159.57081981 263.6772972 -166.88889849 263.62908494 C-170.7655834 263.60378899 -174.64221738 263.582017 -178.51896286 263.56853104 C-182.16494539 263.55573858 -185.81075351 263.53371512 -189.45664024 263.50449181 C-191.43862434 263.49104304 -193.42066775 263.48748909 -195.4026947 263.48417664 C-197.16116982 263.46743141 -197.16116982 263.46743141 -198.95516968 263.4503479 C-199.97835989 263.44481714 -201.0015501 263.43928638 -202.05574608 263.43358803 C-204.47265625 263.171875 -204.47265625 263.171875 -206.47265625 261.171875 C-207.22772136 257.031395 -206.40988723 254.68339854 -204.12109375 251.31640625 C-203.04423877 249.86170742 -201.95202718 248.41829625 -200.84765625 246.984375 C-200.26371094 246.20191406 -199.67976562 245.41945313 -199.078125 244.61328125 C-197.84255324 242.95882695 -196.60119997 241.30867672 -195.35449219 239.66259766 C-192.94558072 236.47425894 -190.5773615 233.25704135 -188.2109375 230.03710938 C-186.46094747 227.65594317 -184.70508103 225.27918171 -182.94921875 222.90234375 C-179.54830753 218.28709265 -176.19433371 213.63903011 -172.84765625 208.984375 C-168.3210777 202.69318649 -163.72233764 196.46323597 -159.05761719 190.27392578 C-153.39663183 182.7586072 -147.82804903 175.17575579 -142.25488281 167.59521484 C-139.33034879 163.61864982 -136.40130192 159.64541229 -133.47265625 155.671875 C-132.30596737 154.08855804 -131.13930072 152.50522469 -129.97265625 150.921875 C-104.30598958 116.08854167 -78.63932292 81.25520833 -52.97265625 46.421875 C-52.39475342 45.63756104 -51.81685059 44.85324707 -51.22143555 44.04516602 C-50.05890456 42.46748017 -48.89630728 40.88984317 -47.73364258 39.31225586 C-44.75314469 35.26792121 -41.77392867 31.22265203 -38.796875 27.17578125 C-38.18779297 26.34820312 -37.57871094 25.520625 -36.95117188 24.66796875 C-35.81010554 23.1175122 -34.66943749 21.56676241 -33.52929688 20.015625 C-32.47454545 18.5828035 -31.4036504 17.16169835 -30.31546021 15.75410461 C-28.3880462 13.17113008 -28.3880462 13.17113008 -26.85165405 10.13298035 C-20.16761451 -1.18473487 -12.25421304 -0.42715837 0 0 Z " fill="#FEFEFE" transform="translate(388.47265625,27.828125)"/>
<path d="M0 0 C0.64455139 -0.00671722 1.28910278 -0.01343445 1.95318604 -0.02035522 C4.08149982 -0.0393281 6.20949753 -0.04326038 8.33789062 -0.04541016 C9.82800421 -0.05184354 11.31811655 -0.0585723 12.80822754 -0.06558228 C15.93533244 -0.0775568 19.06232692 -0.08126343 22.18945312 -0.08007812 C26.16577207 -0.07987606 30.14136723 -0.10705971 34.11751556 -0.14162254 C37.19937275 -0.16405128 40.28106096 -0.16791067 43.36299133 -0.16685867 C44.82679209 -0.16919526 46.29059892 -0.17790723 47.75431824 -0.19352341 C60.3364728 -0.31508255 70.83896532 1.14608251 80.45898438 9.80224609 C87.70823379 18.66553185 89.66128715 28.7596952 92.18164062 39.66552734 C92.61347376 41.48878855 93.04643995 43.31178171 93.48046875 45.13452148 C94.61161756 49.9017501 95.72562889 54.6727941 96.83343506 59.44549561 C97.47535825 62.20964949 98.12016896 64.97311143 98.76611328 67.73632812 C100.42911569 74.85214188 102.08837906 81.96879752 103.73413086 89.08862305 C106.68566155 101.85598728 109.69797006 114.60792798 112.74414062 127.35302734 C115.41070994 138.51046808 118.06284357 149.66967091 120.61914062 160.85302734 C122.82864723 170.51922696 125.14600378 180.15730724 127.49414062 189.79052734 C130.67352804 202.83532571 133.74026677 215.90230313 136.73779297 228.99023438 C138.97548931 238.75433353 141.24115401 248.51107176 143.55126953 258.25830078 C144.3905023 261.82281593 145.19440515 265.3946918 145.99420166 268.9682312 C146.66535028 271.94268536 147.3584631 274.91175199 148.05621338 277.88006592 C148.3877198 279.31125663 148.71007713 280.74459983 149.02288818 282.17999268 C149.45915674 284.17540795 149.93095288 286.16295548 150.40429688 288.14990234 C150.79307007 289.85871582 150.79307007 289.85871582 151.18969727 291.60205078 C152.24069794 294.48656664 152.24069794 294.48656664 154.95372677 295.4422636 C159.51412185 296.53490925 163.77227969 296.57024414 168.44520569 296.55122375 C169.44319118 296.5550493 170.44117668 296.55887485 171.46940416 296.56281632 C174.81111805 296.57312938 178.15265958 296.56915738 181.49438477 296.56518555 C183.89106912 296.56953288 186.28775209 296.57471609 188.68443298 296.58067322 C194.51668306 296.59267905 200.34887955 296.5952152 206.18114049 296.59287295 C210.92113925 296.591089 215.66112405 296.59284108 220.40112114 296.5970974 C221.41351852 296.59799018 221.41351852 296.59799018 222.44636838 296.598901 C223.81751852 296.60011276 225.18866866 296.60132689 226.5598188 296.60254338 C239.41227153 296.6134147 252.264698 296.61125802 265.11715221 296.60515853 C276.8760376 296.59998656 288.63484023 296.61125289 300.39370925 296.63025675 C312.47037372 296.64962455 324.546999 296.65789322 336.6236791 296.6541335 C343.40283937 296.65222025 350.18192913 296.65472128 356.96107674 296.66884804 C363.33291089 296.68139038 369.7045788 296.67951633 376.07641029 296.66643715 C378.4173615 296.66406421 380.75832429 296.66683158 383.09926224 296.67506027 C386.28972279 296.6854683 389.47961935 296.67747474 392.6700592 296.66474915 C393.60079366 296.67212343 394.53152812 296.67949772 395.49046665 296.68709546 C400.28101289 296.64677412 403.65519381 296.50006218 407.49414062 293.29052734 C408.83307275 290.63105998 408.83307275 290.63105998 409.57568359 287.49707031 C409.89760681 286.33012634 410.21953003 285.16318237 410.5512085 283.96087646 C410.8623761 282.74966125 411.1735437 281.53844604 411.49414062 280.29052734 C411.79547913 279.16229553 412.09681763 278.03406372 412.4072876 276.87164307 C413.36089671 273.24926225 414.27877947 269.61924455 415.18945312 265.98583984 C415.53746931 264.6079561 415.88579618 263.23015079 416.23440552 261.85241699 C417.17101801 258.14750918 418.1036035 254.44159886 419.03541565 250.73548126 C420.02678451 246.7953893 421.02180327 242.85621942 422.01660156 238.91699219 C423.25915978 233.99599443 424.50144809 229.0749296 425.7421875 224.1534729 C428.54449331 213.03946747 431.3618934 201.92938259 434.18945312 190.82177734 C443.0445426 156.05174776 443.0445426 156.05174776 451.70117188 121.23193359 C451.86742695 120.55440788 452.03368202 119.87688217 452.20497513 119.17882538 C453.92618919 112.16086221 455.63932627 105.14096572 457.34472656 98.11914062 C457.75775276 96.4234922 457.75775276 96.4234922 458.17912292 94.69358826 C458.6901526 92.59471459 459.19915563 90.49534604 459.70576477 88.395401 C459.92862656 87.48060471 460.15148834 86.56580841 460.38110352 85.62329102 C460.57329971 84.82928391 460.76549591 84.03527679 460.96351624 83.21720886 C461.49414062 81.29052734 461.49414062 81.29052734 462.49414062 79.29052734 C471.23918301 79.15121488 479.98384069 79.04474975 488.72975254 78.97965431 C492.7913451 78.94840378 496.8521759 78.906049 500.91333008 78.83789062 C504.83617014 78.77246917 508.75827978 78.7367741 512.68162346 78.72126389 C514.17476838 78.71021792 515.66787542 78.68864669 517.16070747 78.656147 C530.32080481 78.38116358 530.32080481 78.38116358 534.86694336 82.18725586 C536.9820226 84.45236596 538.74725009 86.74915288 539.99414062 89.60302734 C540.47367188 90.61816406 540.47367188 90.61816406 540.96289062 91.65380859 C542.57884575 99.67417409 539.29551775 107.93962794 536.91871643 115.50434303 C536.25158651 117.62802188 535.59431441 119.7545489 534.93933105 121.88200378 C534.22366515 124.20608282 533.50735344 126.52994461 532.78821564 128.852952 C530.10063988 137.53645538 527.48331586 146.24085398 524.8673954 154.94615936 C523.72855387 158.73515189 522.58758809 162.52350356 521.44670582 166.31188202 C520.56404028 169.24298719 519.6816767 172.17418309 518.79940796 175.10540771 C517.58033171 179.15562128 516.3611127 183.20579182 515.14175415 187.25592041 C509.05773729 207.46443192 502.97531358 227.6734162 496.91210938 247.88818359 C496.70341846 248.58395067 496.49472755 249.27971775 496.27971268 249.99656868 C494.21433348 256.88294262 492.15029068 263.76971557 490.08789062 270.65698242 C488.52887829 275.86247469 486.96647184 281.06693573 485.40136719 286.27059937 C484.77781887 288.34623416 484.15566228 290.4222874 483.53466797 292.49868774 C482.59097331 295.6529919 481.64263798 298.80586858 480.69335938 301.95849609 C480.41304367 302.89917938 480.13272797 303.83986267 479.84391785 304.80905151 C476.15413903 317.01782623 471.75894648 326.94606248 460.23242188 333.59521484 C451.19566394 337.91645686 442.16467915 338.58541787 432.26875305 338.55795288 C431.06220965 338.56248399 429.85566625 338.56701511 428.61256093 338.57168353 C425.28498573 338.58211029 421.95762767 338.58366086 418.63005173 338.58129478 C415.03275597 338.58088494 411.43549188 338.59194163 407.83821106 338.60140991 C400.7981824 338.61798525 393.75818724 338.6235179 386.7181407 338.62463467 C380.99192588 338.62558685 375.26572206 338.62970561 369.53951073 338.63603592 C353.28368935 338.65363934 337.02789433 338.66287627 320.77206335 338.66137497 C319.89667942 338.66129506 319.02129549 338.66121515 318.11938477 338.66113281 C317.24292465 338.66105105 316.36646454 338.66096929 315.46344503 338.66088505 C301.26647086 338.66007254 287.06960289 338.67920371 272.87265942 338.70740955 C258.27479915 338.73618167 243.67699059 338.74994744 229.07910126 338.74822199 C220.8917776 338.74755956 212.70456525 338.75298741 204.51726723 338.77457809 C197.54522309 338.79284703 190.57334072 338.79709064 183.60128293 338.78355925 C180.04908031 338.77705806 176.49718752 338.776808 172.94501495 338.79426575 C152.16302957 338.88991872 135.75101064 338.46380958 120.09960938 323.39208984 C116.04880127 318.08957218 113.87276797 311.99767461 112.33007812 305.55615234 C112.14070679 304.79837494 111.95133545 304.04059753 111.75622559 303.25985718 C111.11726453 300.68909023 110.49298454 298.11500156 109.86914062 295.54052734 C109.40618189 293.65940175 108.94278598 291.77838371 108.47900391 289.89746094 C101.74270286 262.45299457 95.30911404 234.932819 88.82748413 207.42735291 C84.88422926 190.6944572 80.92172583 173.96613149 76.95597076 157.23855591 C76.53616901 155.4678057 76.11643868 153.69703856 75.69671631 151.92626953 C74.29810119 146.02632111 72.89766185 140.12681065 71.49414062 134.22802734 C71.29202972 133.37850494 71.08991882 132.52898254 70.88168335 131.65371704 C67.52807286 117.56512484 64.13049576 103.48757345 60.69311523 89.41918945 C58.92683124 82.1890101 57.1707194 74.95683137 55.44726562 67.71630859 C55.12398749 66.36188694 54.80066499 65.00747588 54.47729492 63.65307617 C53.88185973 61.15496422 53.2893734 58.65614676 52.70043945 56.15649414 C52.4377124 55.0560376 52.17498535 53.95558105 51.90429688 52.82177734 C51.6787915 51.86851562 51.45328613 50.91525391 51.22094727 49.93310547 C50.48277076 47.24918794 49.73222765 44.78704748 48.49414062 42.29052734 C45.59268902 41.32337681 43.7103792 41.15568838 40.69067383 41.1328125 C39.71568436 41.12255035 38.74069489 41.11228821 37.73616028 41.10171509 C36.15649727 41.09076309 36.15649727 41.09076309 34.54492188 41.07958984 C32.31249278 41.05151236 30.080071 41.02284784 27.84765625 40.99365234 C24.33016229 40.95246332 20.81280368 40.91557362 17.29516602 40.88916016 C13.89896411 40.86144971 10.50338255 40.81556798 7.10742188 40.76708984 C6.06443436 40.76383698 5.02144684 40.76058411 3.94685364 40.75723267 C-2.43403331 40.65053701 -8.98825343 40.40272136 -14.02641296 35.94522095 C-19.42189027 29.85164127 -19.9023258 24.23409915 -19.75195312 16.38818359 C-19.32540522 11.0190965 -17.50867931 8.01199908 -13.56835938 4.54052734 C-8.76331708 1.01029218 -6.02383147 0.03948907 0 0 Z " fill="#FEFEFE" transform="translate(39.505859375,213.70947265625)"/>
<path d="M0 0 C11.580672 7.77236425 19.1544568 18.53310504 22.18823242 32.19555664 C24.34385501 45.44019925 21.74189339 58.99543128 13.87573242 70.00805664 C5.07884778 80.47619743 -5.48669515 87.98390951 -19.35473633 89.2043457 C-34.50213028 90.16159357 -46.34462602 87.80787759 -58.61645508 78.30883789 C-67.9998038 69.70012699 -74.26495745 57.78596432 -75.38208008 45.07446289 C-75.86248607 31.73518972 -71.70528873 19.78907205 -63.08911133 9.60180664 C-46.4598293 -7.9953172 -21.03413395 -13.20901574 0 0 Z " fill="#FDFEFE" transform="translate(472.124267578125,578.991943359375)"/>
<path d="M0 0 C11.8941523 8.14809853 18.40815122 18.57311861 21.8125 32.5 C23.19668689 46.61870627 21.13199979 59.36635921 12.125 70.6875 C11.68542969 71.29980469 11.24585938 71.91210938 10.79296875 72.54296875 C3.87485977 81.57439056 -6.88152121 86.66364606 -17.875 88.6875 C-31.66643773 90.20621977 -44.41812876 88.12037738 -55.6640625 79.53125 C-67.19938463 69.91168808 -73.51947204 58.47229414 -75.2578125 43.359375 C-75.7560637 29.60764192 -70.8469886 17.33614607 -61.62109375 7.21484375 C-44.42531805 -9.31849436 -20.40758606 -12.3278479 0 0 Z " fill="#FDFEFE" transform="translate(249.875,578.3125)"/>
</svg>
