<?xml version="1.0" encoding="UTF-8"?>
<svg version="1.1" xmlns="http://www.w3.org/2000/svg" width="645" height="674">
<path d="M0 0 C212.85 0 425.7 0 645 0 C645 222.42 645 444.84 645 674 C432.15 674 219.3 674 0 674 C0 451.58 0 229.16 0 0 Z " fill="#444444" transform="translate(0,0)"/>
<path d="M0 0 C1.89280292 0.02240961 3.78567592 0.0394779 5.67857361 0.05145264 C10.63707035 0.09705725 15.59128127 0.2147215 20.5480957 0.34790039 C25.61545836 0.47113748 30.6835207 0.52556393 35.75195312 0.5859375 C45.67895639 0.71425213 55.60279238 0.91877649 65.52734375 1.171875 C64.13702004 5.67497487 62.35479 9.76502009 60.24609375 13.97729492 C59.92048965 14.63040146 59.59488556 15.283508 59.25941467 15.95640564 C58.1859513 18.10702327 57.10676694 20.25471205 56.02734375 22.40234375 C55.26915708 23.91752219 54.51126855 25.43284984 53.75366211 26.94831848 C52.16230438 30.12947093 50.5682753 33.30926514 48.97216797 36.48803711 C46.95550319 40.50457201 44.94398926 44.52365736 42.93426514 48.54366875 C28.72359038 76.96394256 28.72359038 76.96394256 21.7331543 90.10868835 C18.20543881 96.74421081 14.84307434 103.4568352 11.50857544 110.19110107 C6.64531556 120.00837305 1.74243175 129.79398674 -3.43078613 139.45239258 C-7.87298505 147.81342649 -12.06458512 156.30114886 -16.2890625 164.7734375 C-17.08490793 166.36764118 -17.88084631 167.96179846 -18.67687988 169.5559082 C-20.60987736 173.42736305 -22.54161611 177.29944351 -24.47265625 181.171875 C-23.71174746 181.17518515 -22.95083866 181.17849529 -22.16687202 181.18190575 C-3.67313779 181.26303976 14.82051229 181.35510041 33.31413078 181.45940208 C42.25741735 181.50957613 51.20069454 181.55601839 60.14404297 181.59375 C67.93684213 181.62663688 75.72956944 181.66644959 83.5222894 181.71466506 C87.6504856 181.73996306 91.77863395 181.76173445 95.90688705 181.77521896 C99.78924758 181.78800955 103.67144423 181.81003101 107.55371475 181.83925819 C108.98158247 181.84835759 110.4094766 181.85402968 111.83737183 181.85608864 C113.78101233 181.85939441 115.72461681 181.87601733 117.66818237 181.8934021 C118.75774168 181.89893286 119.84730099 181.90446362 120.96987724 181.91016197 C123.52734375 182.171875 123.52734375 182.171875 125.52734375 184.171875 C126.05829705 187.95826922 125.78728993 189.7411741 123.796875 193.0390625 C122.98605469 194.03164062 122.17523438 195.02421875 121.33984375 196.046875 C120.89568115 196.59931885 120.45151855 197.1517627 119.99389648 197.72094727 C118.51860312 199.5493977 117.02335077 201.36034821 115.52734375 203.171875 C114.46868819 204.47415285 113.41142213 205.77756137 112.35546875 207.08203125 C110.15835889 209.79402673 107.95408422 212.49998395 105.74609375 215.203125 C102.81443409 218.80328662 99.94304836 222.4469189 97.08984375 226.109375 C92.33514385 232.20561717 87.43703862 238.17664149 82.51025391 244.13427734 C78.84361607 248.56879745 75.21639259 253.02996845 71.63671875 257.53515625 C68.85208691 261.01594605 66.03159403 264.46706283 63.21484375 267.921875 C59.12157178 272.94538267 55.07352383 277.99857254 51.08984375 283.109375 C46.40662777 289.11477905 41.57652918 294.99037571 36.71899414 300.85522461 C33.09045388 305.24589229 29.52571005 309.67694144 26.02734375 314.171875 C21.36981222 320.15618109 16.56337222 326.00774526 11.7253418 331.84667969 C8.02745178 336.32005645 4.40226226 340.84005871 0.83984375 345.421875 C-3.1890581 350.60284177 -7.36147271 355.63661595 -11.62524414 360.62548828 C-14.77917327 364.32429546 -17.79688609 368.10035166 -20.75390625 371.95703125 C-23.39771964 375.36394532 -26.14531795 378.68383676 -28.8828125 382.015625 C-35.46356806 390.02562625 -42.00835157 398.06757759 -48.47265625 406.171875 C-53.58345638 412.57928404 -58.76306413 418.9308143 -63.93896484 425.28564453 C-65.2937294 426.95181947 -66.64408223 428.62140594 -67.9921875 430.29296875 C-72.37933913 435.70967961 -76.9038703 440.94899644 -81.625 446.078125 C-83.61210964 448.23520763 -83.61210964 448.23520763 -85.47265625 451.171875 C-88.52340709 451.438362 -91.36891804 451.51944646 -94.41796875 451.46484375 C-95.30298065 451.46059891 -96.18799255 451.45635406 -97.099823 451.45198059 C-99.9327407 451.43515759 -102.76495277 451.39749925 -105.59765625 451.359375 C-107.51561474 451.34433282 -109.43358436 451.33064361 -111.3515625 451.31835938 C-116.05886656 451.28524227 -120.76564169 451.23343555 -125.47265625 451.171875 C-114.93697087 418.27431152 -104.27216742 385.42162973 -93.31005859 352.66357422 C-90.0573906 342.94310536 -86.80870516 333.2213068 -83.56365585 323.49829197 C-82.12211498 319.17935743 -80.67822506 314.86121255 -79.23388672 310.54321289 C-76.96647052 303.75726127 -74.71209648 296.9671109 -72.47265625 290.171875 C-72.11657288 289.09143921 -71.7604895 288.01100342 -71.39361572 286.89782715 C-70.38769653 283.83270816 -69.39114259 280.76473328 -68.3984375 277.6953125 C-68.0998735 276.78576813 -67.80130951 275.87622375 -67.49369812 274.93911743 C-67.22547745 274.10246552 -66.95725677 273.2658136 -66.6809082 272.40380859 C-66.44612259 271.67890228 -66.21133698 270.95399597 -65.96943665 270.2071228 C-65.31457179 267.87338915 -65.31457179 267.87338915 -65.47265625 264.171875 C-66.18718145 264.16856485 -66.90170666 264.16525471 -67.63788414 264.16184425 C-85.00502164 264.08070694 -102.37206655 263.98864522 -119.73908043 263.88434792 C-128.13755844 263.83417586 -136.53602645 263.78773358 -144.93457031 263.75 C-152.2527333 263.71711105 -159.57081981 263.6772972 -166.88889849 263.62908494 C-170.7655834 263.60378899 -174.64221738 263.582017 -178.51896286 263.56853104 C-182.16494539 263.55573858 -185.81075351 263.53371512 -189.45664024 263.50449181 C-191.43862434 263.49104304 -193.42066775 263.48748909 -195.4026947 263.48417664 C-197.16116982 263.46743141 -197.16116982 263.46743141 -198.95516968 263.4503479 C-199.97835989 263.44481714 -201.0015501 263.43928638 -202.05574608 263.43358803 C-204.47265625 263.171875 -204.47265625 263.171875 -206.47265625 261.171875 C-207.22772136 257.031395 -206.40988723 254.68339854 -204.12109375 251.31640625 C-203.04423877 249.86170742 -201.95202718 248.41829625 -200.84765625 246.984375 C-200.26371094 246.20191406 -199.67976562 245.41945313 -199.078125 244.61328125 C-197.84255324 242.95882695 -196.60119997 241.30867672 -195.35449219 239.66259766 C-192.94558072 236.47425894 -190.5773615 233.25704135 -188.2109375 230.03710938 C-186.46094747 227.65594317 -184.70508103 225.27918171 -182.94921875 222.90234375 C-179.54830753 218.28709265 -176.19433371 213.63903011 -172.84765625 208.984375 C-168.3210777 202.69318649 -163.72233764 196.46323597 -159.05761719 190.27392578 C-153.39663183 182.7586072 -147.82804903 175.17575579 -142.25488281 167.59521484 C-139.33034879 163.61864982 -136.40130192 159.64541229 -133.47265625 155.671875 C-132.30596737 154.08855804 -131.13930072 152.50522469 -129.97265625 150.921875 C-104.30598958 116.08854167 -78.63932292 81.25520833 -52.97265625 46.421875 C-52.39475342 45.63756104 -51.81685059 44.85324707 -51.22143555 44.04516602 C-50.05890456 42.46748017 -48.89630728 40.88984317 -47.73364258 39.31225586 C-44.75314469 35.26792121 -41.77392867 31.22265203 -38.796875 27.17578125 C-38.18779297 26.34820312 -37.57871094 25.520625 -36.95117188 24.66796875 C-35.81010554 23.1175122 -34.66943749 21.56676241 -33.52929688 20.015625 C-32.47454545 18.5828035 -31.4036504 17.16169835 -30.31546021 15.75410461 C-28.3880462 13.17113008 -28.3880462 13.17113008 -26.85165405 10.13298035 C-20.16761451 -1.18473487 -12.25421304 -0.42715837 0 0 Z " fill="#FEFEFE" transform="translate(389.47265625,10.828125)"/>
<path d="M0 0 C0.97164597 -0.0076664 0.97164597 -0.0076664 1.96292114 -0.01548767 C4.10086361 -0.0293659 6.23848271 -0.02842712 8.37646484 -0.02612305 C9.87136961 -0.03001334 11.36627328 -0.03434869 12.86117554 -0.03910828 C15.99667945 -0.04656843 19.1320708 -0.04628247 22.26757812 -0.04101562 C26.26191368 -0.03524668 30.25578165 -0.05208996 34.25004005 -0.0753603 C37.34038942 -0.09018943 40.43062888 -0.09095652 43.52100754 -0.08785057 C44.99202774 -0.08836003 46.46305471 -0.09352639 47.93404007 -0.10366249 C60.00564202 -0.17658482 70.37332635 0.61560301 79.46240234 9.2746582 C87.38636097 17.95327955 89.38867314 28.50000312 92.00927734 39.6574707 C92.34650972 41.07642779 92.68418634 42.49527935 93.02227783 43.91403198 C93.91193165 47.65292757 94.7952846 51.39328448 95.67736816 55.13397217 C96.54961878 58.82765402 97.42825152 62.51981607 98.30615234 66.2121582 C102.50149003 83.87275317 106.63725685 101.54711695 110.75262451 119.22650146 C112.21205071 125.49403984 113.67813794 131.76000505 115.14990234 138.0246582 C115.38178253 139.01187866 115.38178253 139.01187866 115.61834717 140.01904297 C118.8929165 153.94921384 122.24065602 167.8616859 125.58740234 181.7746582 C129.38985857 197.58282582 133.15129012 213.39703377 136.77050781 229.24829102 C138.98215884 238.92211815 141.23105273 248.58649711 143.51953125 258.24243164 C144.35876402 261.80694679 145.16266687 265.37882266 145.96246338 268.95236206 C146.633612 271.92681622 147.32672482 274.89588285 148.0244751 277.86419678 C148.35598152 279.29538749 148.67833885 280.72873069 148.9911499 282.16412354 C149.42741846 284.15953881 149.8992146 286.14708634 150.37255859 288.1340332 C150.76133179 289.84284668 150.76133179 289.84284668 151.15795898 291.58618164 C152.20895966 294.4706975 152.20895966 294.4706975 154.92198849 295.42639446 C159.48238356 296.51904011 163.74054141 296.554375 168.41346741 296.53535461 C169.4114529 296.53918016 170.4094384 296.54300571 171.43766588 296.54694718 C174.77937977 296.55726024 178.1209213 296.55328824 181.46264648 296.54931641 C183.85933084 296.55366374 186.25601381 296.55884695 188.6526947 296.56480408 C194.48494478 296.57680991 200.31714126 296.57934606 206.14940221 296.57700381 C210.88940097 296.57521986 215.62938577 296.57697194 220.36938286 296.58122826 C221.38178024 296.58212104 221.38178024 296.58212104 222.4146301 296.58303186 C223.78578024 296.58424362 225.15693038 296.58545775 226.52808052 296.58667424 C239.38053324 296.59754556 252.23295972 296.59538888 265.08541393 296.58928939 C276.84429932 296.58411742 288.60310195 296.59538375 300.36197097 296.61438761 C312.43863543 296.63375541 324.51526072 296.64202407 336.59194082 296.63826436 C343.37110109 296.63635111 350.15019085 296.63885214 356.92933846 296.6529789 C363.3011726 296.66552123 369.67284052 296.66364719 376.04467201 296.65056801 C378.38562322 296.64819507 380.72658601 296.65096244 383.06752396 296.65919113 C386.2579845 296.66959916 389.44788107 296.6616056 392.63832092 296.64888 C393.56905538 296.65625429 394.49978984 296.66362857 395.45872837 296.67122632 C400.24877925 296.63090915 403.62462338 296.48507824 407.46240234 293.2746582 C408.80340695 290.59820078 408.80340695 290.59820078 409.54833984 287.45043945 C409.8702832 286.28335449 410.19222656 285.11626953 410.52392578 283.91381836 C410.98847168 282.11243408 410.98847168 282.11243408 411.46240234 280.2746582 C411.75920898 279.17814941 412.05601562 278.08164062 412.36181641 276.9519043 C413.29659156 273.4616324 414.19580554 269.963702 415.08740234 266.4621582 C415.43575021 265.10275189 415.78422464 263.743378 416.1328125 262.3840332 C418.9461621 251.39010237 421.69536912 240.38011028 424.4364624 229.36798096 C427.46175876 217.21520595 430.52408573 205.07210569 433.61083984 192.93481445 C433.98547494 191.4613918 434.36010358 189.98796751 434.73472595 188.51454163 C435.3093852 186.25446815 435.88405158 183.99439649 436.45872402 181.73432636 C436.84805111 180.20316511 437.23736795 178.67200125 437.62667465 177.14083481 C438.01656157 175.60740317 438.40647695 174.07397877 438.79642105 172.54056168 C443.15325487 155.40560706 447.48843525 138.26612405 451.70068359 121.0949707 C451.86600712 120.42105474 452.03133064 119.74713879 452.20166397 119.05280113 C453.91271281 112.07407216 455.61517371 105.09327536 457.31103516 98.11083984 C457.58666794 96.97931488 457.86230072 95.84778992 458.14628601 94.68197632 C458.65773889 92.5815299 459.16715241 90.48058545 459.67414856 88.37905884 C459.89697006 87.46441864 460.11979156 86.54977844 460.34936523 85.60742188 C460.54156143 84.81341476 460.73375763 84.01940765 460.93177795 83.20133972 C461.46240234 81.2746582 461.46240234 81.2746582 462.46240234 79.2746582 C471.20744472 79.13534574 479.95210241 79.02888061 488.69801426 78.96378517 C492.75960682 78.93253464 496.82043762 78.89017986 500.8815918 78.82202148 C504.80443186 78.75660003 508.7265415 78.72090496 512.64988518 78.70539474 C514.1430301 78.69434878 515.63613714 78.67277755 517.12896919 78.64027786 C530.28906653 78.36529444 530.28906653 78.36529444 534.83520508 82.17138672 C536.95028432 84.43649682 538.71551181 86.73328374 539.96240234 89.5871582 C540.44193359 90.60229492 540.44193359 90.60229492 540.93115234 91.63793945 C542.54710747 99.65830495 539.26377947 107.9237588 536.88697815 115.48847389 C536.21984823 117.61215274 535.56257613 119.73867976 534.90759277 121.86613464 C534.19192687 124.19021368 533.47561516 126.51407547 532.75647736 128.83708286 C530.06890159 137.52058624 527.45157758 146.22498484 524.83565712 154.93029022 C523.69681558 158.71928275 522.5558498 162.50763442 521.41496754 166.29601288 C520.532302 169.22711804 519.64993842 172.15831395 518.76766968 175.08953857 C517.54859343 179.13975214 516.32937442 183.18992268 515.11001587 187.24005127 C509.02599901 207.44856278 502.9435753 227.65754706 496.88037109 247.87231445 C496.67168018 248.56808153 496.46298927 249.26384861 496.2479744 249.98069954 C494.1825952 256.86707348 492.11855239 263.75384643 490.05615234 270.64111328 C488.49714001 275.84660555 486.93473356 281.05106659 485.36962891 286.25473022 C484.74608059 288.33036502 484.123924 290.40641826 483.50292969 292.4828186 C482.55923503 295.63712276 481.6108997 298.78999944 480.66162109 301.94262695 C480.38130539 302.88331024 480.10098969 303.82399353 479.81217957 304.79318237 C476.12240075 317.00195709 471.7272082 326.93019334 460.20068359 333.5793457 C451.16392566 337.90058772 442.13294087 338.56954873 432.23701477 338.54208374 C431.03047137 338.54661485 429.82392797 338.55114597 428.58082265 338.55581439 C425.25324745 338.56624115 421.92588939 338.56779172 418.59831345 338.56542563 C415.00101769 338.5650158 411.4037536 338.57607249 407.80647278 338.58554077 C400.76644412 338.60211611 393.72644896 338.60764876 386.68640242 338.60876553 C380.9601876 338.60971771 375.23398378 338.61383647 369.50777245 338.62016678 C353.25195107 338.6377702 336.99615605 338.64700713 320.74032507 338.64550583 C319.86494114 338.64542592 318.9895572 338.64534601 318.08764648 338.64526367 C317.21118637 338.64518191 316.33472626 338.64510015 315.43170675 338.64501591 C301.23473258 338.6442034 287.03786461 338.66333457 272.84092114 338.69154041 C258.24306087 338.72031253 243.64525231 338.7340783 229.04736298 338.73235285 C220.86003932 338.73169042 212.67282697 338.73711827 204.48552895 338.75870895 C197.51348481 338.77697789 190.54160244 338.7812215 183.56954465 338.76769011 C180.01734203 338.76118892 176.46544924 338.76093886 172.91327667 338.77839661 C152.13129129 338.87404958 135.71927236 338.44794044 120.06787109 323.3762207 C116.01706299 318.07370304 113.84102969 311.98180547 112.29833984 305.5402832 C112.10896851 304.7825058 111.91959717 304.02472839 111.7244873 303.24398804 C111.08552625 300.67322109 110.46124625 298.09913241 109.83740234 295.5246582 C109.37444361 293.64353261 108.9110477 291.76251457 108.44726562 289.8815918 C101.71015161 262.43381331 95.27654469 234.9101772 88.79327393 207.40159607 C82.68726497 181.49414133 76.56022225 155.5918381 70.33740234 129.7121582 C69.82215134 127.56739072 69.30693384 125.42261518 68.79174805 123.27783203 C65.55591961 109.80967034 62.31593475 96.34251312 59.05615234 82.88012695 C58.0435974 78.69443342 57.04004803 74.5067275 56.04447937 70.31697083 C55.40320372 67.6195975 54.75915018 64.92289071 54.11489868 62.22622681 C53.66382695 60.33309915 53.21673738 58.43902404 52.76977539 56.54492188 C52.49689697 55.40385986 52.22401855 54.26279785 51.94287109 53.0871582 C51.5855188 51.58088867 51.5855188 51.58088867 51.22094727 50.04418945 C50.47333745 47.31458347 49.72497475 44.81050039 48.46240234 42.2746582 C45.56095074 41.30750767 43.67864092 41.13981924 40.65893555 41.11694336 C39.68394608 41.10668121 38.7089566 41.09641907 37.704422 41.08584595 C36.12475899 41.07489395 36.12475899 41.07489395 34.51318359 41.0637207 C32.2807545 41.03564322 30.04833272 41.0069787 27.81591797 40.9777832 C24.29842401 40.93659418 20.7810654 40.89970448 17.26342773 40.87329102 C13.86722583 40.84558057 10.47164427 40.79969884 7.07568359 40.7512207 C6.03269608 40.74796783 4.98970856 40.74471497 3.91511536 40.74136353 C-2.46577159 40.63466786 -9.01999171 40.38685222 -14.05815125 35.92935181 C-19.45362855 29.83577213 -19.93406408 24.21823 -19.78369141 16.37231445 C-19.3571435 11.00322736 -17.54041759 7.99612994 -13.60009766 4.5246582 C-8.7788805 0.98253948 -6.04592207 0.0238295 0 0 Z " fill="#FEFEFE" transform="translate(40.53759765625,196.725341796875)"/>
<path d="M0 0 C11.580672 7.77236425 19.1544568 18.53310504 22.18823242 32.19555664 C24.34385501 45.44019925 21.74189339 58.99543128 13.87573242 70.00805664 C5.07884778 80.47619743 -5.48669515 87.98390951 -19.35473633 89.2043457 C-34.50213028 90.16159357 -46.34462602 87.80787759 -58.61645508 78.30883789 C-67.9998038 69.70012699 -74.26495745 57.78596432 -75.38208008 45.07446289 C-75.86248607 31.73518972 -71.70528873 19.78907205 -63.08911133 9.60180664 C-46.4598293 -7.9953172 -21.03413395 -13.20901574 0 0 Z " fill="#FEFEFE" transform="translate(473.124267578125,561.991943359375)"/>
<path d="M0 0 C11.8941523 8.14809853 18.40815122 18.57311861 21.8125 32.5 C23.19668689 46.61870627 21.13199979 59.36635921 12.125 70.6875 C11.68542969 71.29980469 11.24585938 71.91210938 10.79296875 72.54296875 C4.54330718 80.70174884 -5.86064042 86.66789765 -15.875 88.6875 C-30.35301487 90.20573148 -43.81648418 88.57988587 -55.6640625 79.53125 C-67.19938463 69.91168808 -73.51947204 58.47229414 -75.2578125 43.359375 C-75.7560637 29.60764192 -70.8469886 17.33614607 -61.62109375 7.21484375 C-44.42531805 -9.31849436 -20.40758606 -12.3278479 0 0 Z " fill="#FEFEFE" transform="translate(250.875,561.3125)"/>
</svg>
